<svg xmlns="http://www.w3.org/2000/svg" width="480" height="480" viewBox="0 0 480 480" fill="none">
  <rect width="480" height="480" fill="#b30000"/>
  <path d="M80 96H184V200H80V96Z" stroke="#ffffff" stroke-opacity="0.12" stroke-width="8"/>
  <path d="M294 78H398V182H294V78Z" stroke="#ffffff" stroke-opacity="0.10" stroke-width="8"/>
  <path d="M120 282H224V386H120V282Z" stroke="#ffffff" stroke-opacity="0.12" stroke-width="8"/>
  <path d="M318 290H422V394H318V290Z" stroke="#ffffff" stroke-opacity="0.09" stroke-width="8"/>
  <circle cx="72" cy="300" r="18" fill="#ffffff" fill-opacity="0.09"/>
  <circle cx="406" cy="234" r="26" fill="#ffffff" fill-opacity="0.08"/>
  <circle cx="238" cy="80" r="14" fill="#ffffff" fill-opacity="0.08"/>
  <path d="M0 430C76 378 150 378 226 430C302 482 376 482 480 430" stroke="#ffffff" stroke-opacity="0.09" stroke-width="18"/>
  <path d="M0 40C76 92 150 92 226 40C302 -12 376 -12 480 40" stroke="#ffffff" stroke-opacity="0.08" stroke-width="18"/>
</svg>
